<?xml version="1.0" encoding="UTF-8"?>
<svg width="16px" height="16px" viewBox="0 0 16 16" version="1.1" xmlns="http://www.w3.org/2000/svg" xmlns:xlink="http://www.w3.org/1999/xlink">
    <title>编组</title>
    <g id="页面-1" stroke="none" stroke-width="1" fill="none" fill-rule="evenodd">
        <g id="编组">
            <rect id="矩形" opacity="0" x="0" y="0" width="16" height="16"></rect>
            <g id="自动化助手-16px色" transform="translate(1.834803, 0.228432)" fill="#7C878E" fill-rule="nonzero">
                <path d="M8.34446463,8.8817842e-16 L12.3303934,2.30127707 L12.3303934,7.01059033 L10.469,7.901 L10.4690712,13.0360896 L5.526,15.446 L5.46940216,15.5431361 L2.28939635,13.6786926 L2.289,10.026 L0,8.70404725 L0,3.99473398 L8.34446463,8.8817842e-16 Z M5.433,10.312 L4.289,10.86 L4.28893025,12.5327367 L5.433,13.203 L5.433,10.312 Z M7.43293025,12.2907367 L8.46893023,11.7857367 L8.46800003,6.595 L10.33,5.687 L10.33,4.44 L4.14788413,7.55414546 L4.147,8.712 L5.433,8.095 L5.43353732,8.07410927 L7.432,7.1 L7.43293025,12.2907367 Z M8.2542289,2.25662734 L2.289,5.119 L3.35088413,5.71614546 L9.17000003,2.785 L8.2542289,2.25662734 Z" id="形状结合"></path>
            </g>
        </g>
    </g>
</svg>