<svg width="14" height="14" viewBox="0 0 14 14" fill="none" xmlns="http://www.w3.org/2000/svg">
<path opacity="0.01" fill-rule="evenodd" clip-rule="evenodd" d="M14 0V14H0V0L14 0Z" fill="#20222A"/>
<path fill-rule="evenodd" clip-rule="evenodd" d="M13 3.38943L9.60958 0L1 8.61062L4.3904 12L13 3.38943ZM9.17235 1.28468L11.2914 3.40312L10.861 3.83361L8.742 1.71532L9.17235 1.28468ZM7.88103 2.57631L9.15238 3.8473L8.72189 4.27794L7.45052 3.00695L7.88103 2.57631ZM6.58947 3.86794L7.8609 5.13893L7.43049 5.56949L6.15912 4.2985L6.58947 3.86794ZM5.29805 5.1595L6.56949 6.43049L6.13901 6.86112L4.86756 5.58998L5.29805 5.1595ZM4.00672 6.45113L5.27809 7.72212L4.84759 8.15268L3.57624 6.88169L4.00672 6.45113ZM2.71532 7.74268L4.83427 9.86112L4.40379 10.2916L2.28483 8.17317L2.71532 7.74268ZM1.50002 14H13L13 12H1.5L1.50002 14Z" fill="black"/>
</svg>
