<svg width="14" height="14" viewBox="0 0 14 14" fill="none" xmlns="http://www.w3.org/2000/svg">
<rect opacity="0.01" width="14" height="14" fill="#20222A"/>
<path fill-rule="evenodd" clip-rule="evenodd" d="M11.5376 10.1306L3.86936 2.46225L4.995 1.33663L7.80902 4.15074L11.8191 0L14 2.18087L9.91961 6.26127L11.9598 8.23113C12.2412 8.51251 12.4522 8.72362 12.6633 9.005L11.5376 10.1306ZM11.0452 10.6231L8.37188 13.2965C8.09048 13.5779 7.80902 13.7889 7.598 14L6.05025 12.4522L7.38689 11.1156L6.89449 10.6231L5.48739 11.9598L4.01003 10.4824L6.33163 8.16076L5.83924 7.66835L3.51761 9.98989L2.04023 8.51251L3.37688 7.17587L2.88438 6.68338L1.54775 8.02011L0.70351 7.17587C0.42211 6.89447 0.211014 6.61301 0 6.402L3.44725 2.95475L11.0452 10.6231Z" fill="#20222A"/>
</svg>
