<?xml version="1.0" standalone="no"?><!DOCTYPE svg PUBLIC "-//W3C//DTD SVG 1.1//EN" "http://www.w3.org/Graphics/SVG/1.1/DTD/svg11.dtd"><svg t="1687172799627" class="icon" viewBox="0 0 1024 1024" version="1.1" xmlns="http://www.w3.org/2000/svg" p-id="17876" xmlns:xlink="http://www.w3.org/1999/xlink" width="200" height="200"><path d="M554.666667 640v49.92A128.341333 128.341333 0 0 1 632.746667 768H853.333333v85.333333h-220.586666a128.042667 128.042667 0 0 1-241.493334 0H170.666667v-85.333333h220.586666A128.341333 128.341333 0 0 1 469.333333 689.92V640H308.693333C185.856 640 85.333333 545.066667 85.333333 426.666667c0-100.010667 72.192-184.576 170.538667-207.36C306.346667 137.386667 404.096 85.333333 512 85.333333c127.146667 0 238.634667 72.277333 277.034667 176.938667C875.392 283.946667 938.666667 359.082667 938.666667 448c0 106.581333-90.453333 192-200.789334 192H554.666667z m-42.666667 213.333333a42.666667 42.666667 0 1 0 0-85.333333 42.666667 42.666667 0 0 0 0 85.333333z m341.333333-405.333333c0-53.845333-43.776-99.797333-102.101333-105.984l-30.250667-3.2-6.826666-29.610667C695.893333 230.442667 612.096 170.666667 512 170.666667c-84.736 0-159.104 42.965333-190.421333 105.984L311.466667 296.96l-22.485334 2.986667C221.013333 308.949333 170.666667 363.264 170.666667 426.666667c0 70.144 61.269333 128 138.026666 128h429.226667C802.133333 554.666667 853.333333 506.368 853.333333 448z" p-id="17877"></path></svg>