<svg width="16" height="16" viewBox="0 0 16 16" fill="none" xmlns="http://www.w3.org/2000/svg">
<g clip-path="url(#clip0_335_1507)">
<path d="M8 0.842285L12 3.17562V6.42529L15 8.17562V12.8244L11 15.1577L8 13.4073L5 15.1577L1 12.8244V8.17562L4 6.42529V3.17562L8 0.842285ZM5 8.17562L3 9.32299V11.676L5 12.842L7 11.675V10.8673V10V9.5V9.32299L5 8.17562ZM11 8.17562L9 9.32299V11.676L11 12.842L13 11.675V10.8673V10V9.32299L12.312 8.92229L11 8.17562ZM8 3.15699L6 4.32299V6.42529L8 7.59128L10 6.42529V5.86728V5.5V4.32299L9.312 3.92229L8 3.15699Z" fill="#7C878E"/>
</g>
<defs>
<clipPath id="clip0_335_1507">
<rect width="16" height="16" fill="white"/>
</clipPath>
</defs>
</svg>
