<?xml version="1.0" standalone="no"?><!DOCTYPE svg PUBLIC "-//W3C//DTD SVG 1.1//EN" "http://www.w3.org/Graphics/SVG/1.1/DTD/svg11.dtd"><svg t="1683595178540" class="icon" viewBox="0 0 1024 1024" version="1.1" xmlns="http://www.w3.org/2000/svg" p-id="4958" xmlns:xlink="http://www.w3.org/1999/xlink" width="64" height="64"><path d="M357.3 324v376c0 17.6-14.4 32-32 32s-32-14.4-32-32V324c0-17.6 14.4-32 32-32s32 14.4 32 32zM400.5 512c0 9 4.4 17.4 11.7 22.6l275.2 192.6c8.4 5.9 19.4 6.5 28.5 1.9 9.1-4.7 14.8-14.1 14.8-24.4V319.4c0-10.3-5.7-19.6-14.8-24.4-9.1-4.7-20.1-4-28.5 1.9L412.3 489.5a27.29 27.29 0 0 0-11.8 22.5z" fill="#7C878E" p-id="4959"></path></svg>