<svg width="14" height="14" viewBox="0 0 14 14" fill="none" xmlns="http://www.w3.org/2000/svg">
<rect opacity="0.01" width="14" height="14" fill="#20222A"/>
<path fill-rule="evenodd" clip-rule="evenodd" d="M7.00004 0V1.16666C3.79168 1.16666 1.225 3.73333 1.16666 6.88334H0C0.0583448 3.09166 3.15 0 7.00004 0ZM9.91667 0.641673L9.45003 1.69169C11.4333 2.62504 12.8334 4.66666 12.8334 7.00004C12.8334 8.5167 12.25 9.91667 11.2583 10.9667L12.1333 11.7833C13.3 10.5583 14 8.8667 14 7.05832C14 4.20004 12.3084 1.74997 9.91667 0.641673ZM7.00004 3.50002V2.33336C4.43335 2.33336 2.39164 4.37501 2.33336 6.94168H3.50002C3.55837 5.01668 5.07502 3.50002 7.00004 3.50002ZM4.66666 7.00004C4.66666 7.83363 5.11141 8.60394 5.83332 9.02071C6.5553 9.43754 7.44477 9.43754 8.16668 9.02071C8.88859 8.60394 9.33334 7.83363 9.33334 7.00004C9.33334 5.71135 8.28865 4.66666 7.00004 4.66666C5.71135 4.66666 4.66666 5.71135 4.66666 7.00004ZM8.45835 3.79168L8.92498 2.74166C10.5583 3.50002 11.6667 5.13337 11.6667 7.00004C11.6667 8.22503 11.2 9.33334 10.4417 10.15L9.56665 9.33334C10.15 8.69167 10.5 7.87503 10.5 6.94168C10.5 5.54166 9.68334 4.37501 8.45835 3.79168ZM7.00004 11.6667C7.6417 11.6667 8.22503 11.55 8.80836 11.3167L8.34165 10.2667C7.93337 10.3834 7.46666 10.5 7.00004 10.5C5.54166 10.5 4.31666 9.62499 3.79168 8.40001L2.74166 8.8667C3.44168 10.5 5.07502 11.6667 7.00004 11.6667ZM1.63335 9.33334C2.56669 11.375 4.60832 12.8334 7.00004 12.8334C7.81668 12.8334 8.5167 12.6583 9.21672 12.425L9.68334 13.475C8.8667 13.825 7.93337 14 7.00004 14C4.14169 14 1.69169 12.25 0.583328 9.80003L1.63335 9.33334Z" fill="#20222A"/>
</svg>
