<?xml version="1.0" standalone="no"?><!DOCTYPE svg PUBLIC "-//W3C//DTD SVG 1.1//EN" "http://www.w3.org/Graphics/SVG/1.1/DTD/svg11.dtd"><svg t="1684197744817" class="icon" viewBox="0 0 1024 1024" version="1.1" xmlns="http://www.w3.org/2000/svg" p-id="9988" xmlns:xlink="http://www.w3.org/1999/xlink" width="64" height="64"><path d="M963.349862 812.429752c0-42.31405-31.030303-78.986226-84.628099-104.374656V451.349862c0-149.509642-90.269972-284.914601-228.495868-338.512396-14.104683-64.881543-70.523416-112.837466-138.225895-112.837466-67.702479 0-124.121212 47.955923-138.225895 112.837466C235.548209 166.435262 145.278237 301.84022 145.278237 451.349862v256.705234c-53.597796 25.38843-84.628099 62.060606-84.628099 104.374656v56.418733h282.093664c8.46281 87.449036 81.807163 155.151515 169.256198 155.151515s160.793388-67.702479 169.256198-155.151515h282.093664v-56.418733z m-451.349862 155.151515c-56.418733 0-104.374656-42.31405-112.837466-98.732782h225.674932c-8.46281 53.597796-56.418733 98.732782-112.837466 98.732782zM117.068871 812.429752c0-19.746556 25.38843-42.31405 64.881542-59.239669 8.46281-2.820937 14.104683-11.283747 16.92562-19.746557 2.820937-2.820937 2.820937-5.641873 2.820937-11.283746V451.349862c0-132.584022 84.628099-248.242424 208.749311-293.37741l16.92562-5.641873v-16.92562c5.641873-45.134986 42.31405-78.986226 84.628099-78.986226 45.134986 0 78.986226 33.85124 84.628099 78.986226v16.92562l16.92562 5.641873C737.674931 203.107438 822.30303 318.76584 822.30303 451.349862v273.630854c0 14.104683 8.46281 25.38843 22.567493 28.209367 2.820937 0 2.820937 2.820937 5.641874 2.820936 33.85124 14.104683 56.418733 36.672176 56.418732 53.597796H117.068871z" p-id="9989"></path></svg>