<svg width="20" height="20" viewBox="0 0 20 20" fill="none" xmlns="http://www.w3.org/2000/svg">
<rect opacity="0.01" width="20" height="20" fill="#006EFF"/>
<path fill-rule="evenodd" clip-rule="evenodd" d="M15.8295 3.98592C15.7348 1.76859 13.9073 0 11.6667 0H8.33332L8.15258 0.00384521C5.93525 0.0984802 4.16666 1.92604 4.16666 4.16666L4.16667 5C1.86548 5 0 6.86548 0 9.16666V15.8333C0 18.1345 1.86548 20 4.16667 20H15.8333C18.1345 20 20 18.1345 20 15.8333V9.16666C20 6.86548 18.1345 5 15.8333 5H5.83332V4.16666L5.83757 4.01978C5.91361 2.70743 7.00192 1.66667 8.33332 1.66667H11.6667L11.8136 1.67091C13.1259 1.74695 14.1667 2.83527 14.1667 4.16666H15.8333L15.8295 3.98592ZM15.8333 6.66666H4.16666C2.78594 6.66666 1.66666 7.78595 1.66666 9.16666V15.8333C1.66666 17.214 2.78594 18.3333 4.16666 18.3333H15.8333C17.214 18.3333 18.3333 17.214 18.3333 15.8333V9.16666C18.3333 7.78595 17.214 6.66666 15.8333 6.66666ZM9.16666 10.8333C9.16666 10.3731 9.53975 9.99998 9.99999 9.99998C10.4602 9.99998 10.8333 10.3731 10.8333 10.8333V14.1666C10.8333 14.6269 10.4602 15 9.99999 15C9.53975 15 9.16666 14.6269 9.16666 14.1666V10.8333Z" fill="#006EFF"/>
</svg>
