<svg width="20" height="20" viewBox="0 0 20 20" fill="none" xmlns="http://www.w3.org/2000/svg">
<rect opacity="0.01" y="0.000244141" width="20" height="20" fill="#D8D8D8"/>
<path fill-rule="evenodd" clip-rule="evenodd" d="M10 0.000244141C6.77836 0.000244141 4.16669 2.61191 4.16669 5.83357C4.16669 7.8174 5.15698 9.56992 6.67019 10.6238C3.25389 11.9563 0.833374 15.2789 0.833374 19.1669C0.833374 19.6271 1.20647 20.0002 1.66671 20.0002C2.12694 20.0002 2.50004 19.6271 2.50004 19.1669C2.50004 15.0247 5.85791 11.6669 10 11.6669C14.1422 11.6669 17.5 15.0247 17.5 19.1669C17.5 19.6271 17.8731 20.0002 18.3334 20.0002C18.7936 20.0002 19.1667 19.6271 19.1667 19.1669C19.1667 15.2789 16.7462 11.9563 13.3299 10.6238C14.8431 9.5699 15.8334 7.81738 15.8334 5.83357C15.8334 2.61191 13.2217 0.000244141 10 0.000244141ZM10 1.6669C12.3012 1.6669 14.1667 3.53238 14.1667 5.83356C14.1667 8.13475 12.3012 10.0002 10 10.0002C7.69882 10.0002 5.83334 8.13475 5.83334 5.83356C5.83334 3.53238 7.69882 1.6669 10 1.6669Z" fill="#006EFF"/>
</svg>
