<svg width="16px" height="16px"  xmlns="http://www.w3.org/2000/svg"><path d="M3.2812,5 L8.0002,2.304 L12.7192,5 L8.0002,7.696 L3.2812,5 Z M8.0002,0 L1.0002,4 L1.0002,12 L4.0272,13.73 C4.0752,13.019 4.2962,12.354 4.6692,11.793 L3.0002,10.839 L3.0002,7.143 L8.0002,10 L13.0002,7.143 L13.0002,10.839 L9.5842,12.792 C9.2182,12.313 8.6482,12 8.0002,12 C6.8952,12 6.0002,12.896 6.0002,14 C6.0002,15.104 6.8952,16 8.0002,16 C8.7292,16 9.3612,15.605 9.7102,15.022 L15.0002,12 L15.0002,4 L8.0002,0 Z" fill="#7C878E" fill-rule="evenodd"/></svg>