<?xml version="1.0" encoding="UTF-8"?>
<svg width="16px" height="16px" viewBox="0 0 16 16" version="1.1" xmlns="http://www.w3.org/2000/svg" xmlns:xlink="http://www.w3.org/1999/xlink">
    <title>实例启动模板-16px</title>
    <g id="ICON-基础库(绘制参考)" stroke="none" stroke-width="1" fill="none" fill-rule="evenodd">
        <g id="实例启动模板-16px" fill="#7C878E">
            <rect id="矩形" opacity="0" x="0" y="0" width="16" height="16"></rect>
            <path d="M15,13 L15,15 L6,15 L6,13 L15,13 Z M4,13 L4,15 L1,15 L1,13 L4,13 Z M10,9 L10,11 L1,11 L1,9 L10,9 Z M15,9 L15,11 L12,11 L12,9 L15,9 Z M15,1 L15,7 L1,7 L1,1 L15,1 Z M5,3 L3,3 L3,5 L5,5 L5,3 Z M13,3 L7,3 L7,5 L13,5 L13,3 Z" id="形状结合"></path>
        </g>
    </g>
</svg>