<?xml version="1.0" standalone="no"?><!DOCTYPE svg PUBLIC "-//W3C//DTD SVG 1.1//EN" "http://www.w3.org/Graphics/SVG/1.1/DTD/svg11.dtd"><svg t="1683595228395" class="icon" viewBox="0 0 1024 1024" version="1.1" xmlns="http://www.w3.org/2000/svg" p-id="982" xmlns:xlink="http://www.w3.org/1999/xlink" width="64" height="64"><path d="M698.7 292c17.6 0 32 14.4 32 32v376c0 17.6-14.4 32-32 32s-32-14.4-32-32V324c0-17.6 14.4-32 32-32zM611.7 489.5L336.6 296.9c-8.4-5.9-19.4-6.6-28.5-1.9-9.1 4.8-14.8 14.1-14.8 24.4v385.3c0 10.3 5.7 19.7 14.8 24.4 9.1 4.6 20.1 4 28.5-1.9l275.2-192.6c7.3-5.2 11.7-13.6 11.7-22.6 0-9-4.4-17.4-11.8-22.5z" fill="#7C878E" p-id="983"></path></svg>