<svg width="160" height="34" viewBox="0 0 160 34" fill="none" xmlns="http://www.w3.org/2000/svg">
<path fill-rule="evenodd" clip-rule="evenodd" d="M14.0072 15.0435C14.0072 8.94433 18.916 4 24.9712 4H25.295C31.3502 4 36.259 8.94433 36.259 15.0435V15.3696C36.259 16.4741 37.148 17.3696 38.2446 17.3696C41.4391 17.3696 44.0288 19.978 44.0288 23.1957V23.6848C44.0288 27.1726 41.2217 30 37.759 30H35.4734L31.3208 26.0465C30.5238 25.2878 29.2671 25.3234 28.5138 26.1262C27.7605 26.9289 27.7959 28.1947 28.5929 28.9535L33.3195 33.4535C33.6882 33.8045 34.1762 34 34.6835 34H37.759C43.4149 34 48 29.3817 48 23.6848V23.1957C48 18.4286 44.6298 14.4544 40.1584 13.5586C39.418 5.9473 33.046 0 25.295 0H24.9712C17.2842 0 10.9536 5.84939 10.1273 13.3702C4.52374 13.4316 0 18.0261 0 23.6848C0 29.3818 4.58536 34 10.2412 34H14.606C14.6078 34 14.6097 34 14.6115 34H26.9137C28.0103 34 28.8993 33.1046 28.8993 32C28.8993 30.8954 28.0103 30 26.9137 30H20.6187L26.4696 22.3043H32.4388C33.5355 22.3043 34.4245 21.4089 34.4245 20.3043C34.4245 19.1998 33.5355 18.3043 32.4388 18.3043H25.5106C25.4973 18.3042 25.484 18.3042 25.4708 18.3043H17.5036C16.407 18.3043 15.518 19.1998 15.518 20.3043C15.518 21.4089 16.407 22.3043 17.5036 22.3043H21.4677L15.6167 30H10.2412C6.77846 30 3.97122 27.1725 3.97122 23.6848C3.97122 20.197 6.7783 17.3696 10.241 17.3696H12.0216C13.1182 17.3696 14.0072 16.4741 14.0072 15.3696V15.0435ZM21.7338 11.413C20.6372 11.413 19.7482 12.3085 19.7482 13.413C19.7482 14.5176 20.6372 15.413 21.7338 15.413H28.8561C29.9527 15.413 30.8417 14.5176 30.8417 13.413C30.8417 12.3085 29.9527 11.413 28.8561 11.413H21.7338Z" fill="white"/>
<path d="M69.916 28.738C70.1756 28.0393 70.3227 27.6376 70.3573 27.5328H67.8391C67.7872 25.3668 67.3805 23.2096 66.619 21.0611H69.4228C69.9939 22.7729 70.3487 24.7904 70.4871 27.1135C70.9025 25.8035 71.1881 24.476 71.3439 23.131C71.5169 21.786 71.6035 20.2664 71.6035 18.5721V5.68122C75.1168 5.68122 78.4571 5.45415 81.6243 5V7.49184C81.6243 7.98713 81.2621 8.40873 80.771 8.47357C78.9974 8.70777 77.0319 8.87742 74.8745 8.98253V12.1004H82.1176V14.4541C82.1176 15.0064 81.6699 15.4541 81.1176 15.4541H80.3003V27.738C80.3003 28.2903 79.8526 28.738 79.3003 28.738H77.0293V15.4541H74.8745V18.5721C74.8745 20.4236 74.762 22.179 74.537 23.8384C74.312 25.4804 73.9572 27.1135 73.4726 28.738H69.916ZM58 28.4236C58.8654 26.0131 59.3327 23.559 59.4019 21.0611H62.1278C62.0066 23.8908 61.5999 26.345 60.9076 28.4236H58ZM58.3375 12.5459H60.5961L60.0509 9.40175H58.8048V6.46725H62.7508V5.15721H66.0738V6.46725H70.2795V8.40175C70.2795 8.95403 69.8317 9.40175 69.2795 9.40175H69.0593L68.5141 12.5459H70.7468V14.4803C70.7468 15.0326 70.299 15.4803 69.7468 15.4803H66.2036V17.262H70.4352V19.1965C70.4352 19.7488 69.9875 20.1965 69.4352 20.1965H66.1257V27.738C66.1257 28.2903 65.678 28.738 65.1257 28.738H62.9585V20.1965H58.649V17.262H62.8806V15.4803H58.3375V12.5459ZM63.5556 12.5459H65.5546L66.0998 9.40175H63.0104L63.5556 12.5459Z" fill="white"/>
<path d="M95.1239 21.2445L102.315 19.8035V5.18341H105.69V19.1485L108.26 18.6245V21.3187C108.26 21.794 107.926 22.2036 107.46 22.2985L105.69 22.6594V28C105.69 28.5523 105.242 29 104.69 29H102.315V23.3144L95.1239 24.7555V21.2445ZM84.2983 27.9782C85.0079 24.0306 85.3627 19.952 85.3627 15.7424H87.803C87.803 20.2489 87.4915 24.3275 86.8684 27.9782H84.2983ZM84.5839 11.3406H88.3222V9.06114C87.2146 9.11354 86.0809 9.13974 84.9214 9.13974V5.94323C87.6905 5.94323 90.7539 5.68996 94.1115 5.18341V7.55614C94.1115 8.04623 93.7562 8.46474 93.272 8.54078C92.5343 8.65665 91.992 8.73403 91.6452 8.77293V11.3406H94.6047V13.5371C94.6047 14.0894 94.157 14.5371 93.6047 14.5371H91.6452V16.5284L94.5528 17.9694V21.7162L91.6452 20.2751V28C91.6452 28.5523 91.1975 29 90.6452 29H88.5039V14.5371H84.5839V11.3406ZM95.3576 12.6245L100.602 14.4585V17.7336L95.3576 15.8996V12.6245ZM96.396 6.67686L101.64 8.51092V11.786L96.396 9.95197V6.67686Z" fill="white"/>
<path d="M111.375 24.6245H113.193L117.658 16.738H110.415V13.3843H133.78V15.738C133.78 16.2903 133.332 16.738 132.78 16.738H121.63L117.165 24.6245H128.561L126.926 20.7467H130.716L132.607 25.2266C133.164 26.5451 132.196 28.0044 130.765 28.0044H111.375V24.6245ZM112.258 6.07424H131.936V8.42795C131.936 8.98023 131.489 9.42795 130.936 9.42795H112.258V6.07424Z" fill="white"/>
<path d="M140.218 24.1528H142.061V17.1572H140.218V24.1528ZM135.856 16.9476C136.531 15.6201 137.085 14.3188 137.518 13.0437C137.951 11.7686 138.279 10.4061 138.504 8.95633H136.376V5.55022H145.618V7.95633C145.618 8.50862 145.17 8.95633 144.618 8.95633H141.957C141.715 10.6507 141.343 12.2926 140.841 13.8821H144.995V26.4279C144.995 26.9802 144.547 27.4279 143.995 27.4279H137.284V16.9476H135.856ZM145.436 25.2009H151.018V17.917H146.916V14.5371H158.494V16.917C158.494 17.4693 158.047 17.917 157.494 17.917H154.392V25.2009H159.974V27.5808C159.974 28.1331 159.526 28.5808 158.974 28.5808H145.436V25.2009ZM145.436 11.2358C147.392 9.54149 148.811 7.55022 149.694 5.26201H155.742C156.625 7.55022 158.044 9.54149 160 11.2358V15.4017C157.248 13.6026 155.18 11.3231 153.795 8.56332H151.641C150.256 11.3231 148.188 13.6026 145.436 15.4017V11.2358Z" fill="white"/>
</svg>
