<svg width="16px" height="16px"  xmlns="http://www.w3.org/2000/svg"><path d="M8,10 C6.896,10 6,9.104 6,8 C6,6.896 6.896,6 8,6 C9.104,6 10,6.896 10,8 C10,9.104 9.104,10 8,10 M8,0 C3.582,0 0,3.582 0,8 C0,12.418 3.582,16 8,16 C12.418,16 16,12.418 16,8 C16,3.582 12.418,0 8,0 M8,12 C10.206,12 12,10.206 12,8 C12,5.794 10.206,4 8,4 C5.794,4 4,5.794 4,8 C4,10.206 5.794,12 8,12 M8,2 C11.309,2 14,4.691 14,8 C14,11.309 11.309,14 8,14 C4.691,14 2,11.309 2,8 C2,4.691 4.691,2 8,2" fill="#7C878E" fill-rule="evenodd"/></svg>