<svg width="16" height="16" viewBox="0 0 16 16" fill="none" xmlns="http://www.w3.org/2000/svg">
<path d="M12.5372 9.03095C11.7228 11.6725 6.0951 10.3256 5.13453 9.99152C2.9628 10.524 3.06721 12.3407 3.06721 12.3407C3.06721 12.3407 3.05677 14.4289 5.01968 14.9301C6.29348 15.306 8.05801 14.1262 9.4571 12.915C10.6683 11.8709 11.6184 10.7015 12.4223 9.29197C12.4746 9.20845 12.5163 9.11448 12.5476 9.02051L12.5372 9.03095Z" stroke="#7C878E" stroke-width="2" stroke-linejoin="round"/>
<path d="M8.37641 8.48141C7.47848 6.54982 5.01997 6.70459 3.69396 5.26374C2.45149 3.71847 3.44338 2.19408 3.44338 2.19408C3.44338 2.19408 4.10116 1.00381 5.44805 1.00381C5.87613 0.972484 6.33554 1.13954 6.65921 1.31704C6.83671 1.42145 7.00376 1.55718 7.12905 1.72424C8.45717 3.49506 8.91963 4.41445 9.18066 5.10356C9.18066 5.10356 9.55456 6.03763 9.50236 6.87291C9.48148 7.42628 9.00287 8.00112 8.37641 8.48141Z" stroke="#7C878E" stroke-width="2" stroke-miterlimit="10"/>
<path d="M5.13544 10.0043C5.13544 10.0043 7.27585 10.6829 9.64595 10.6203C9.64595 10.6203 10.6274 10.6203 11.2017 10.3697C11.7968 10.1296 12.0578 9.92073 12.3293 9.50309C12.4337 9.33604 12.5172 9.15854 12.5799 8.9706C12.8513 8.05179 12.82 6.89284 11.6193 5.46243C11.2121 4.94038 10.7423 4.47053 10.2411 4.04245C9.66684 3.55172 7.40464 1.80105 6.76774 1.4043C6.76774 1.4043 9.82345 4.78376 9.55198 7.00769C9.40581 8.83487 5.125 10.0251 5.125 10.0251L5.13544 10.0043Z" stroke="#7C878E" stroke-width="2" stroke-linejoin="round"/>
</svg>
