<svg width="14" height="14" viewBox="0 0 14 14" fill="none" xmlns="http://www.w3.org/2000/svg">
<rect opacity="0.01" width="14" height="14" fill="#20222A"/>
<path fill-rule="evenodd" clip-rule="evenodd" d="M13 5.43278H10.7347V3.89883C11.3359 3.9003 11.913 3.65162 12.3381 3.20782C12.7632 2.7641 13.0014 2.16173 13 1.53416H10.7347C10.74 1.12561 10.5869 0.732268 10.3102 0.443347C10.0334 0.154478 9.65661 -0.00539792 9.26522 0.000139185H4.73478C4.34341 -0.00539792 3.96654 0.154478 3.68983 0.443347C3.41311 0.732268 3.25995 1.12561 3.26526 1.53416H1.00001C0.998598 2.16173 1.23675 2.7641 1.6619 3.20782C2.08703 3.65162 2.66407 3.9003 3.26526 3.89883V5.43278H1.00001C0.998598 6.06035 1.23675 6.66271 1.6619 7.1065C2.08703 7.55024 2.66407 7.79892 3.26526 7.79745V9.33146H1.00001C0.998598 9.95904 1.23675 10.5614 1.6619 11.0051C2.08703 11.4489 2.66407 11.6976 3.26526 11.6961V12.4659C3.25995 12.8744 3.41311 13.2678 3.68983 13.5567C3.96654 13.8456 4.34341 14.0054 4.73478 13.9999H9.20422C9.59559 14.0054 9.97246 13.8456 10.2492 13.5567C10.5259 13.2678 10.679 12.8744 10.6737 12.4659V11.6961C11.2749 11.6976 11.852 11.4489 12.2771 11.0051C12.7022 10.5614 12.9404 9.95904 12.939 9.33146H10.6737V7.79745C11.9378 7.80498 12.9737 6.75203 13 5.43278ZM6.99997 12.4631C6.60866 12.4686 6.23179 12.3088 5.95508 12.0199C5.67838 11.731 5.52521 11.3376 5.53051 10.9291C5.53051 10.3086 5.88852 9.74929 6.43766 9.5119C6.98674 9.27445 7.61882 9.40568 8.0391 9.84441C8.45939 10.2831 8.5851 10.9429 8.35764 11.5162C8.13016 12.0893 7.59433 12.4631 6.99997 12.4631ZM6.99997 8.56442C6.19016 8.56187 5.53486 7.87589 5.53486 7.03047C5.53486 6.18505 6.19016 5.499 6.99997 5.49645C7.52603 5.49486 8.01281 5.78686 8.27629 6.26216C8.53977 6.73741 8.53977 7.32348 8.27629 7.79878C8.01281 8.27403 7.52603 8.5661 6.99997 8.56442ZM6.99997 4.6658C6.18851 4.66573 5.53064 3.97893 5.53064 3.13178C5.53064 2.28464 6.18851 1.5979 6.99997 1.59783C7.525 1.59777 8.01019 1.8901 8.27271 2.36474C8.53529 2.83939 8.53529 3.42419 8.27271 3.89883C8.01019 4.37346 7.525 4.66587 6.99997 4.6658Z" fill="#20222A"/>
</svg>
