<svg width="14" height="14" viewBox="0 0 14 14" fill="none" xmlns="http://www.w3.org/2000/svg">
<rect opacity="0.01" width="14" height="14" fill="#20222A"/>
<path d="M7 1.07495e-05C5.54743 -0.00275306 4.14338 0.527522 3.04932 1.49208C1.95526 2.45664 1.24578 3.78974 1.05299 5.2431C0.860208 6.69646 1.19727 8.17102 2.0014 9.39216C2.80553 10.6133 4.02191 11.4978 5.42403 11.8809C6.17475 12.3837 6.73122 13.132 7 14C7.26878 13.132 7.82525 12.3837 8.57597 11.8809C9.97809 11.4978 11.1945 10.6133 11.9986 9.39216C12.8027 8.17102 13.1398 6.69646 12.947 5.2431C12.7542 3.78974 12.0447 2.45664 10.9507 1.49208C9.85662 0.527522 8.45257 -0.00275306 7 1.07495e-05ZM5.33892 9.89228C5.18568 10.0381 5.00173 10.1471 4.80086 10.211C4.59999 10.2749 4.3874 10.2921 4.17901 10.2614C3.83747 10.2236 3.5212 10.0617 3.28922 9.80583C3.05723 9.54998 2.92537 9.21768 2.91823 8.87091C2.90494 8.6803 2.9324 8.48903 2.99875 8.31006C3.06509 8.1311 3.16878 7.96862 3.30277 7.83364C3.40678 7.72864 3.47928 7.71591 3.55492 7.78591C3.63057 7.85591 3.61796 7.945 3.52971 8.05C3.38556 8.2075 3.28838 8.40287 3.24934 8.61365C3.2103 8.82443 3.23099 9.04204 3.30903 9.24148C3.38706 9.44091 3.51928 9.61406 3.69047 9.74101C3.86165 9.86796 4.06486 9.94355 4.27672 9.9591C4.57348 9.98079 4.86676 9.88363 5.09307 9.68864L5.1435 9.64728C5.22861 9.58364 5.32001 9.55819 5.39566 9.64728C5.47131 9.73637 5.42403 9.82546 5.33892 9.89228ZM4.17901 8.82637C4.20393 8.88269 4.24138 8.93245 4.28846 8.97177C4.33554 9.01109 4.39097 9.03891 4.45045 9.05307C4.50992 9.06724 4.57183 9.06736 4.63135 9.05342C4.69088 9.03949 4.74641 9.01187 4.79364 8.97273C4.84092 8.93773 4.8882 8.89319 4.95124 8.90273C4.98103 8.90732 5.00884 8.92062 5.03125 8.94097C5.05365 8.96132 5.06966 8.98785 5.07731 9.01728C5.08777 9.04824 5.08789 9.08181 5.07764 9.11284C5.06739 9.14388 5.04735 9.17066 5.02058 9.18909C4.89867 9.299 4.74343 9.36388 4.58025 9.37313C4.41706 9.38237 4.2556 9.33544 4.12227 9.24C4.02981 9.1729 3.95524 9.08374 3.90519 8.98048C3.85515 8.87722 3.83119 8.76306 3.83545 8.64819C3.83572 8.4832 3.89504 8.32387 4.0025 8.19955C4.07815 8.10728 4.17901 8.085 4.24835 8.15182C4.2652 8.16704 4.27867 8.18568 4.28789 8.20651C4.29712 8.22735 4.30189 8.24991 4.30189 8.27273C4.30189 8.29555 4.29712 8.31812 4.28789 8.33895C4.27867 8.35979 4.2652 8.37842 4.24835 8.39364C4.19417 8.44985 4.15844 8.52154 4.14604 8.59896C4.13363 8.67638 4.14514 8.75578 4.17901 8.82637ZM6.43895 8.87728C6.29712 9.06182 6.22777 9.065 6.06702 8.90591C5.64151 8.47955 5.2097 8.05955 4.80625 7.63319C4.61398 7.43273 4.40595 7.25137 4.22629 7.04137C4.20694 7.02643 4.19154 7.0069 4.18145 6.98451C4.17136 6.96212 4.1669 6.93757 4.16846 6.91303C4.17002 6.88848 4.17755 6.86471 4.19038 6.8438C4.20322 6.8229 4.22097 6.80551 4.24205 6.79319C4.5022 6.5323 4.84961 6.37907 5.216 6.36364C5.59977 6.35417 5.97308 6.4905 6.26201 6.74564C6.55095 7.00078 6.73446 7.35614 6.77621 7.74137C6.7984 7.94386 6.77997 8.1488 6.72203 8.34395C6.66409 8.5391 6.56781 8.72048 6.43895 8.87728ZM10.6216 9.56455C10.4892 9.69819 10.4199 9.70137 10.2875 9.56455L8.30175 7.55682C8.27505 7.53994 8.25304 7.51648 8.23778 7.48865C8.22252 7.46083 8.21451 7.42954 8.21451 7.39773C8.21451 7.36593 8.22252 7.33464 8.23778 7.30681C8.25304 7.27898 8.27505 7.25553 8.30175 7.23864C8.39946 7.13682 8.50033 7.03501 8.60119 6.92046C8.61291 6.91301 8.62257 6.90268 8.62926 6.89044C8.63595 6.8782 8.63947 6.86444 8.63947 6.85046C8.63947 6.83648 8.63595 6.82272 8.62926 6.81048C8.62257 6.79824 8.61291 6.78791 8.60119 6.78046C8.32067 6.50364 8.40892 6.52273 8.16937 6.75819L7.48855 7.44228C7.36563 7.56637 7.29944 7.56637 7.17336 7.44228C6.77306 7.06364 6.36961 6.68182 5.96931 6.25228C5.87791 6.15682 5.77389 6.07092 5.68249 5.97546C5.59108 5.88001 5.58162 5.79092 5.68249 5.67637L6.44526 4.90637C6.56818 4.78228 6.56818 4.76637 6.44526 4.64546C6.25299 4.45137 6.28451 4.45137 6.09224 4.64546L5.89367 4.8491C5.7802 4.95728 5.71085 4.96364 5.59738 4.8491C5.3799 4.63592 5.16872 4.41955 4.95124 4.21274L3.63372 2.86365C3.48558 2.7141 3.48243 2.66001 3.63372 2.51046L4.54463 1.59092C4.69278 1.44137 4.75582 1.43819 4.9008 1.59092L6.85186 3.56046C7 3.71001 6.99685 3.77364 6.85186 3.92637C6.7636 4.01546 6.6785 4.10455 6.5871 4.19046C6.57532 4.19968 6.56578 4.2115 6.55922 4.22501C6.55266 4.23852 6.54925 4.25337 6.54925 4.26842C6.54925 4.28346 6.55266 4.29831 6.55922 4.31182C6.56578 4.32533 6.57532 4.33715 6.5871 4.34637C6.79828 4.59137 6.79828 4.59455 7.02522 4.36228L7.72495 3.65592C7.92045 3.45047 8.17859 3.31717 8.45803 3.27737C8.73747 3.23756 9.02207 3.29355 9.26625 3.43637C9.28755 3.45532 9.31274 3.46926 9.34001 3.47722C9.36728 3.48517 9.39595 3.48693 9.42398 3.48236C9.452 3.4778 9.47867 3.46703 9.50209 3.45083C9.5255 3.43462 9.54506 3.41339 9.55938 3.38864C9.59415 3.34451 9.63322 3.304 9.676 3.26774C9.72655 3.23246 9.76729 3.18468 9.79433 3.12898C9.82137 3.07327 9.83381 3.0115 9.83045 2.94955C9.82598 2.89725 9.83252 2.84457 9.84965 2.795C9.86677 2.74542 9.8941 2.70006 9.92982 2.6619C9.96554 2.62374 10.0088 2.59364 10.0569 2.57357C10.105 2.5535 10.1567 2.54392 10.2087 2.54546C10.3035 2.55654 10.3908 2.60312 10.4532 2.676C10.5157 2.74888 10.5488 2.84276 10.5461 2.93909C10.5433 3.03542 10.5048 3.1272 10.4383 3.19629C10.3717 3.26539 10.2819 3.30678 10.1866 3.31228C10.0511 3.25183 9.98174 3.37274 9.89979 3.45228C9.81223 3.5218 9.7357 3.60442 9.67285 3.69728C9.61296 3.81183 9.7485 3.89137 9.78632 3.99001C9.8928 4.23109 9.9224 4.49962 9.87101 4.75844C9.81962 5.01725 9.68979 5.25352 9.49949 5.43455C9.23158 5.70819 8.96366 5.98182 8.6926 6.2491C8.61695 6.32228 8.61065 6.37319 8.6926 6.44955C8.93214 6.67864 8.8628 6.6691 9.08974 6.44955L9.24419 6.29364C9.37657 6.16001 9.45537 6.16001 9.5909 6.29364L10.8517 7.56637L11.5577 8.27273C11.6901 8.40637 11.6901 8.47637 11.5577 8.61C11.2457 8.93773 10.9368 9.25273 10.6216 9.56455Z" fill="#20222A"/>
</svg>
