<svg width="14" height="14" viewBox="0 0 14 14" fill="none" xmlns="http://www.w3.org/2000/svg">
<path fill-rule="evenodd" clip-rule="evenodd" d="M13.817 12.1831L10.8368 9.20291C11.6135 8.23341 12.0781 7.00298 12.0781 5.66406C12.0781 2.53589 9.54223 0 6.41406 0C3.28589 0 0.749999 2.53589 0.749999 5.66406C0.749999 8.79223 3.28589 11.3281 6.41406 11.3281C7.75298 11.3281 8.98341 10.8636 9.95291 10.0868L12.933 13.0669C13.1771 13.311 13.5729 13.311 13.817 13.0669C14.061 12.8229 14.061 12.4271 13.817 12.1831ZM10.8281 5.66406C10.8281 8.10188 8.85187 10.0781 6.41406 10.0781C3.97625 10.0781 2 8.10188 2 5.66406C2 3.22625 3.97625 1.25 6.41406 1.25C8.85187 1.25 10.8281 3.22625 10.8281 5.66406Z" fill="white"/>
</svg>
