<?xml version="1.0" standalone="no"?><!DOCTYPE svg PUBLIC "-//W3C//DTD SVG 1.1//EN" "http://www.w3.org/Graphics/SVG/1.1/DTD/svg11.dtd"><svg t="1683584593015" class="icon" viewBox="0 0 1024 1024" version="1.1" xmlns="http://www.w3.org/2000/svg" p-id="12320" xmlns:xlink="http://www.w3.org/1999/xlink" width="64" height="64"><path d="M948.021185 858.944339 774.369941 685.293095c46.559408-64.466873 73.983412-143.669032 73.983412-229.215549 0-216.62916-175.595483-392.224643-392.224643-392.224643C239.49955 63.852903 63.904067 239.448386 63.904067 455.975217c0 216.62916 175.595483 392.224643 392.224643 392.224643 85.546517 0 164.748676-27.424003 229.215549-73.983412l173.753572 173.753572c12.279404 12.279404 32.233437 12.279404 44.512841 0l44.512841-44.512841C960.30059 891.177776 960.30059 871.223743 948.021185 858.944339L948.021185 858.944339zM175.953632 455.975217c0-154.720496 125.454582-280.175077 280.175077-280.175077 154.720496 0 280.175077 125.454582 280.175077 280.175077 0 154.720496-125.454582 280.175077-280.175077 280.175077C301.408214 736.150295 175.953632 610.798041 175.953632 455.975217L175.953632 455.975217z" p-id="12321" fill="#7C878E"></path></svg>