<svg width="14" height="14" viewBox="0 0 14 14" fill="none" xmlns="http://www.w3.org/2000/svg">
<path opacity="0.01" fill-rule="evenodd" clip-rule="evenodd" d="M14 0V14H0V0L14 0Z" fill="#20222A"/>
<path fill-rule="evenodd" clip-rule="evenodd" d="M3.76854 1.61508H6.46038V4.57363e-06H3.76854V1.61508ZM7.53708 1.61508H10.2289V4.57363e-06H7.53708V1.61508ZM3.76854 13.9975H6.46038V12.3824H3.76854V13.9975ZM1.61508 4.57363e-06C1.18643 -0.00101597 0.775016 0.168793 0.471896 0.471896C0.168793 0.774998 -0.00101597 1.18643 4.57363e-06 1.61508V2.69185H1.61508V2.15353C1.61508 1.85745 1.85738 1.61515 2.15346 1.61515H2.69178V4.57363e-06H1.61508ZM4.57363e-06 6.46039H1.61508V3.76854H4.57363e-06V6.46039ZM4.57363e-06 10.229H1.61508V7.53715H4.57363e-06V10.229ZM1.61508 11.8441V11.3057H4.57363e-06V12.3825C-0.00101597 12.8111 0.168793 13.2225 0.471896 13.5256C0.775016 13.8288 1.18643 13.9986 1.61508 13.9976H2.69185V12.3825H2.15353C1.85738 12.3824 1.61508 12.1402 1.61508 11.8441ZM12.3824 2.15353V2.69185H13.9975V1.61508C13.9986 1.18643 13.8287 0.775068 13.5256 0.471965C13.2225 0.168845 12.8111 -0.00101597 12.3824 4.57363e-06H11.3057V1.61508H11.844C12.1401 1.61508 12.3824 1.85738 12.3824 2.15353ZM12.3824 6.46039H13.9975V3.76854H12.3824V6.46039ZM13.7619 12.6179L8.11996 6.9759L9.99748 5.22218L5.07546 5.06872L5.22892 9.99072L6.98266 8.1132L12.6247 13.7552C12.941 14.0715 13.4524 14.0715 13.7687 13.7552C14.0782 13.4457 14.0782 12.9343 13.7619 12.6179Z" fill="#20222A"/>
</svg>
