<svg width="14" height="14" viewBox="0 0 14 14" fill="none" xmlns="http://www.w3.org/2000/svg">
<path fill-rule="evenodd" clip-rule="evenodd" d="M9.9109 13.9903C8.3369 13.9911 6.76245 13.9919 5.18807 13.9916L5.18748 13.9918C4.00642 13.9918 2.82401 13.9918 1.64296 13.9904C0.659191 13.9891 0.00515034 13.3302 0.00244769 12.3445C-0.00160629 10.5771 -0.000254736 8.80835 0.00379924 7.04094C0.00379924 6.95723 0.0173124 6.84921 0.0686627 6.7952C0.435735 6.41793 0.807719 6.0472 1.17633 5.67983L1.17658 5.67958L1.17724 5.67892L1.17777 5.6784C1.28226 5.57425 1.38649 5.47038 1.49026 5.3667L1.49068 5.36712L1.49104 5.36676L1.49152 5.36723L1.49214 5.36661C4.17755 8.04099 6.84424 10.6955 9.53248 13.3714L9.53922 13.3782L10.1366 13.9728C10.1083 13.9752 10.0826 13.9778 10.0587 13.9802L10.0585 13.9802L10.0583 13.9803C10.0036 13.9858 9.95827 13.9903 9.91224 13.9903H9.9118H9.91135H9.9109ZM13.7711 6.26188L13.7685 6.26446C12.9491 7.08047 12.1297 7.89648 11.3103 8.71113C10.9847 9.03518 10.8171 9.03518 10.4901 8.70978L10.1623 8.38383C9.39865 7.62453 8.63541 6.86561 7.87526 6.10255C7.72121 5.94728 7.56987 5.78256 7.44419 5.60433C6.64316 4.47092 6.41771 3.18433 6.75195 1.98434C6.92877 1.35117 7.26137 0.74215 7.74742 0.192655C7.77483 0.161844 7.79953 0.128321 7.82977 0.0872715L7.82978 0.0872481C7.84725 0.0635436 7.86656 0.0373293 7.88931 0.00767822L7.88812 0.00767827L7.89013 0.00506203C7.80001 0.00506203 7.71449 0.00608216 7.63215 0.00706433C7.44656 0.00927809 7.27713 0.011299 7.10771 0.00101117C6.97118 -0.00627842 6.86599 0.025788 6.76736 0.0990686C6.73745 0.121112 6.70815 0.146939 6.67878 0.176601C5.39232 1.47144 4.0991 2.76088 2.80588 4.05032C2.70827 4.14785 2.60564 4.24099 2.4843 4.35111C2.42758 4.40258 2.36678 4.45776 2.30049 4.51884L2.30182 4.51983L2.30158 4.52004C2.34049 4.54875 2.3752 4.57298 2.40647 4.59481C2.47079 4.63972 2.52056 4.67447 2.56239 4.71717L3.20586 5.3595C5.99127 8.14 8.77618 10.92 11.5541 13.7081C11.7595 13.9147 11.9581 14.0052 12.2527 13.9998C13.3689 13.9822 14 13.3665 14 12.2553V6.05251L13.9714 6.07874L13.9738 6.0715C13.9345 6.10898 13.9006 6.14023 13.8702 6.16817L13.8702 6.1682C13.8328 6.20265 13.8009 6.23206 13.7711 6.26188ZM13.9992 3.27671C13.987 4.17054 13.6857 4.9469 13.0695 5.59905C12.7923 5.89223 12.5157 6.18594 12.2391 6.4796L12.239 6.47977C11.8953 6.84467 11.5517 7.20948 11.2073 7.57304C10.9519 7.84308 10.8411 7.83768 10.5884 7.57169L10.1348 7.09281C9.68094 6.61349 9.22706 6.13416 8.7709 5.65711C8.11443 4.97039 7.78801 4.11862 7.78809 3.27003C7.78739 2.36954 8.15419 1.47251 8.88478 0.780049C9.48747 0.208916 10.3388 -0.0408712 11.1604 0.0279889L11.1602 0.0290292C11.7954 0.0825263 12.4133 0.327327 12.8857 0.763991C13.6181 1.44314 14.0005 2.30322 13.9992 3.27671ZM10.9046 1.55791C10.8732 1.55766 10.842 1.5583 10.811 1.55981L10.8104 1.56181C9.98611 1.60367 9.34964 2.25311 9.33747 3.08754C9.33207 3.48449 9.4699 3.84365 9.70233 4.11909L9.70112 4.12116C9.98205 4.45432 10.4028 4.66446 10.8817 4.66741C11.7506 4.67281 12.4357 4.00177 12.4479 3.13629C12.4587 2.25191 11.7871 1.56331 10.9046 1.55791ZM2.54248 2.55672L2.54269 2.55652L2.55 2.54922C3.39618 1.70408 4.24422 0.857086 5.09563 0.00638459H4.89293C4.53703 0.00638459 4.18128 0.00608446 3.82558 0.00578438C3.11434 0.00518433 2.40329 0.00458445 1.69164 0.00638459C0.647068 0.00773479 0.00383717 0.653129 0.00248584 1.69953C0.00158502 2.40519 0.00188521 3.11024 0.00218548 3.81549C0.00233565 4.16819 0.00248584 4.52095 0.00248584 4.87385C0.00248584 4.92999 0.00595883 4.98544 0.00892089 5.03274C0.0100903 5.05141 0.0111801 5.06881 0.0119451 5.08448C0.853995 4.24313 1.69638 3.40178 2.54061 2.5586L2.54248 2.55672Z" fill="#20222A"/>
</svg>
