<?xml version="1.0" encoding="UTF-8"?>
<svg width="90px" height="24px" viewBox="0 0 90 24" version="1.1" xmlns="http://www.w3.org/2000/svg" xmlns:xlink="http://www.w3.org/1999/xlink">
    <!-- Generator: Sketch 59.1 (86144) - https://sketch.com -->
    <title>TencentCloud logo</title>
    <desc>Created with Sketch.</desc>
    <g id="页面-1" stroke="none" stroke-width="1" fill="none" fill-rule="evenodd">
        <g id="控制台框架调整-顶部导航1备份-2" transform="translate(-20.000000, -12.000000)" fill="#FFFFFF">
            <g id="Rectangle-22">
                <g id="TencentCloud-logo" transform="translate(20.000000, 12.000000)">
                    <path d="M72.6581693,4.63305496 L72.6581693,18.5250646 L73.9414949,18.5250646 L73.9414949,19.832333 L71.2138645,19.832333 L71.2138645,12.0105086 L67.7598964,12.0105086 L67.7598964,20 L66.3152697,20 L66.3152697,12.0105086 L63.1843329,12.0105086 L63.1843329,10.7037741 L66.3152697,10.7037741 L66.3152697,5.9397894 L63.5832392,5.9397894 L63.5832392,4.63305496 L72.6581693,4.63305496 Z M62.0634889,8.77890386 L62.0634889,17.2736389 L64.4989958,15.437205 C64.5402923,15.4060211 64.5988973,15.4187168 64.6206875,15.4612943 L64.6292816,15.4986117 L64.6292816,16.9786732 L60.6456921,19.9822615 L59.8531382,18.94027 L60.6287356,18.3553579 L60.6287356,10.2163545 L58.6887225,10.2163545 L58.6887225,8.77890386 L62.0634889,8.77890386 Z M47.0693349,4.66593691 L47.0693349,19.9240586 L44.7323472,19.9240586 L44.3725052,18.7490015 C44.3456324,18.6766377 44.371784,18.6357825 44.4158485,18.6223349 L44.4517069,18.6173242 L45.7585355,18.6173242 L45.7585355,14.5546573 L43.9183294,14.5546573 C43.9113179,15.7881309 43.8608348,17.4570763 43.4966526,19.4591237 L43.4137135,19.8931951 L42.0971189,19.8931951 C42.0190977,19.8931951 41.9741308,19.8535744 42.0159854,19.7055576 C42.3867955,18.213827 42.579793,16.5432004 42.6038779,14.3951642 L42.6064568,13.9274547 L42.6064568,4.66593691 L47.0693349,4.66593691 Z M52.7816363,4 C52.8469938,4 52.8999023,4.01943655 52.8862727,4.11736688 C52.7929478,4.79333177 52.6919988,5.4105171 52.5799642,5.97849164 L52.4938056,6.39539503 L54.0738694,6.39539503 L54.5922222,4.64097909 L55.7101686,4.64097909 C55.7667259,4.64097909 55.812766,4.67461928 55.7870093,4.7615498 L55.3052524,6.39539503 L56.5922269,6.39539503 L56.5922269,7.57141332 L52.1989992,7.57141332 C52.1036995,7.89892458 52.0013973,8.2073931 51.8908248,8.49970231 L51.7774485,8.78673188 L56.9143998,8.78673188 L56.9143998,9.96285696 L55.1513564,9.96285696 C55.8873437,11.0019122 56.6672215,11.5498224 57.0880563,11.8152121 L57.2410801,11.9097161 L57.2410801,13.2551101 C57.2410801,13.3229245 57.1873131,13.394797 56.9736401,13.2741195 C56.4912547,13.0017026 55.9677111,12.6543554 55.4439648,12.2052442 L55.1822644,11.972084 L55.1286047,14.2589761 L56.7594306,14.2589761 L56.7594306,19.9216344 L52.5931834,19.9216344 L52.2332341,18.7465772 C52.2063613,18.6742135 52.2325129,18.6333583 52.2765774,18.6199107 L52.3124358,18.6148999 L55.3150185,18.6148999 L55.3150185,15.4349943 L48.6531656,15.4349943 C48.6179112,15.4349943 48.5904441,15.4158314 48.5789592,15.3871021 L48.5731053,15.3555394 L48.6973812,13.126423 L49.9321984,13.126423 C49.9673724,13.126423 49.9948797,13.1455259 50.0064349,13.1742702 L50.012366,13.205878 L49.9536623,14.2589761 L53.8149077,14.2589761 L53.8562256,12.4977253 L48.9654651,12.4977253 C48.5453096,12.806681 48.13052,13.0547641 47.7418091,13.2741195 C47.5548452,13.3797123 47.4902272,13.3378022 47.476994,13.2803161 L47.4742618,13.2551101 L47.4742618,11.9097161 L47.7105437,11.7621583 C48.1150374,11.4999185 48.7728877,11.014168 49.4175994,10.1652672 L49.5660246,9.96285696 L47.4869255,9.96285696 L47.4869255,8.78673188 L50.2549079,8.78673188 C50.3952012,8.4818877 50.5286127,8.15974284 50.6367605,7.86093586 L50.7358062,7.57141332 L47.8088837,7.57141332 L47.8088837,6.39539503 L49.0621599,6.39539503 L48.580403,4.7615498 C48.5598835,4.69200538 48.5851766,4.65656678 48.6251269,4.64517311 L48.657351,4.64097909 L49.7752974,4.64097909 L50.2934356,6.39539503 L51.0687111,6.39539503 C51.2138606,5.79245249 51.3325529,5.15457934 51.4433577,4.43900842 L51.5090426,4 L52.7816363,4 Z M90,10.4139132 L90,11.8513638 L81.1297281,11.8513638 L78.6902504,18.2419317 L87.0459257,18.2419317 L85.7162381,14.7587304 C85.7004407,14.7172088 85.7200157,14.6722015 85.7589735,14.6558594 L85.7915763,14.6494799 L87.3602643,14.6494799 L89.2392126,19.5652192 C89.256212,19.6096457 89.2376329,19.6559858 89.1991353,19.6727448 L89.166772,19.6792755 L76.5648966,19.6792755 C76.5094125,19.6792755 76.4675579,19.6319657 76.4904169,19.5684231 L79.4430961,11.8513638 L75.3896416,11.8513638 L75.3896416,10.4139132 L90,10.4139132 Z M54.6445834,16.3458105 L54.6445834,17.6525449 L47.4847683,17.6525449 L47.4847683,16.3458105 L54.6445834,16.3458105 Z M45.7585355,10.2512762 L43.9196173,10.2512762 L43.9196173,13.378639 L45.7585355,13.378639 L45.7585355,10.2512762 Z M53.5438188,9.96285696 L51.2060799,9.96285696 C50.9652551,10.3857622 50.7103501,10.7564493 50.4471342,11.083995 L50.2482541,11.321707 L54.5468261,11.321707 C54.1971794,10.9271022 53.858372,10.4778188 53.5438188,9.96285696 Z M71.2138645,5.9397894 L67.7598964,5.9397894 L67.7598964,10.7036673 L71.2138645,10.7036673 L71.2138645,5.9397894 Z M45.7585355,5.97267135 L45.7585355,9.07525791 L43.9196173,9.07525791 L43.9196173,5.97267135 L45.7585355,5.97267135 Z M60.4741849,4.34373865 L62.4653894,7.36975373 C62.4901158,7.40717444 62.4767223,7.46304919 62.4345501,7.48390226 L62.3976709,7.49213994 L60.8192169,7.49213994 L58.825544,4.46228027 C58.7991864,4.4222965 58.821526,4.37042013 58.8621769,4.35126893 L58.8956236,4.34373865 L60.4741849,4.34373865 Z M88.3945015,4.9818343 L88.3945015,6.41917811 L76.9951402,6.41917811 L76.9951402,4.9818343 L88.3945015,4.9818343 Z" id="形状"></path>
                    <path d="M28.7973954,19.6505725 C28.2059237,20.2349929 27.1505026,20.8986705 25.4178222,20.9573324 C24.6169821,20.9844071 23.6809683,20.9875311 23.252957,20.9875311 L13.9438281,20.9875311 C17.3307048,17.70397 20.2853968,14.8402984 20.6206646,14.5152862 C20.9274137,14.2178114 21.6181209,13.5582992 22.2137661,13.0229372 C23.5216813,11.8477327 24.6987123,11.6112339 25.531317,11.618986 C26.8359862,11.6309035 28.0221756,12.162563 28.8699672,13.0210859 C30.6843778,14.8718856 30.6412521,17.8291617 28.7973954,19.6505725 M31.0274129,10.9145807 C29.6363763,9.49871199 27.6975734,8.6067506 25.5423303,8.6067506 C23.6792293,8.60628778 22.0751145,9.24751882 20.6743399,10.3855824 C20.0640876,10.8819522 19.4239256,11.475976 18.6178687,12.2569774 C18.3506515,12.5163855 13.0707639,17.629341 9.60389593,20.9866055 C9.12128193,20.9848699 8.4277924,20.9779277 7.81290299,20.9573324 C6.08022252,20.8986705 5.02491741,20.2349929 4.4333298,19.6505725 C2.589589,17.8291617 2.54646327,14.8718856 4.36087394,13.0210859 C5.20854954,12.162563 6.39531857,11.6309035 7.69952406,11.618986 C8.51694209,11.6157463 9.62650215,11.8527079 10.8796987,12.8899934 L10.8799306,12.8898777 C11.478358,13.3849747 12.8069087,14.5505758 13.3899175,15.0752931 C13.4195954,15.101905 13.4553017,15.1043347 13.4900805,15.0758716 L15.5468995,13.073037 C15.5823739,13.0385572 15.5802871,12.9920443 15.5451605,12.9604571 C14.556167,12.0680329 13.1538853,10.8193564 12.3098035,10.1921255 C11.4229438,9.52983635 10.4668742,9.05869005 9.43081337,8.81027377 C9.44136294,8.81258784 9.45237623,8.81397629 9.46350545,8.81617467 C10.161864,5.48818328 13.1098321,3.01628507 16.6151887,3.01628507 C19.534986,3.01628507 22.0962137,4.77359597 23.2512181,7.2642382 C23.2690712,7.30369323 23.2999084,7.31653637 23.3315571,7.30774287 C24.1999841,7.06950853 25.2410299,6.93101096 26.2468332,7.00529286 C26.3445616,7.01258221 26.3827024,6.95716004 26.3510537,6.86818374 C24.9314984,2.86737415 21.1102343,0 16.6151887,0 C11.4592297,0 7.18653657,3.78409618 6.41270798,8.71308249 C6.41502656,8.71308249 6.41734515,8.7135453 6.41966374,8.71308249 C4.77740819,8.98764785 3.31519096,9.78288078 2.20331231,10.9145807 C-0.776652312,13.9542379 -0.730744279,18.8113721 2.32225585,21.8038222 C3.54797715,23.0051758 5.0331484,23.6587872 6.61709147,23.8797816 L6.61662775,23.8797816 C7.22467733,23.9663281 8.06087592,23.9920144 8.80711332,23.9966426 C9.50570374,24.0012707 22.8351475,24 23.3931156,24 C24.5163554,24 25.2470582,23.9989566 26.0322479,23.9415675 C27.8325152,23.8101279 29.5335469,23.1514255 30.9084693,21.8038222 C33.9614694,18.8113721 34.0074934,13.9542379 31.0274129,10.9145807" id="Fill-1"></path>
                </g>
            </g>
        </g>
    </g>
</svg>