<svg width="14" height="14" viewBox="0 0 14 14" fill="none" xmlns="http://www.w3.org/2000/svg">
<path opacity="0.01" fill-rule="evenodd" clip-rule="evenodd" d="M14 0V14H0V0L14 0Z" fill="#20222A"/>
<path fill-rule="evenodd" clip-rule="evenodd" d="M6.30002 13.2615C3.37497 12.9337 1.06637 10.625 0.73847 7.69999H0V6.30002H0.73847C1.06637 3.37497 3.37497 1.06637 6.30002 0.73847V0H7.69999V0.73847C10.625 1.06637 12.9337 3.37497 13.2615 6.30002H14V7.69999H13.2615C12.9337 10.625 10.625 12.9337 7.69999 13.2615V14H6.30002V13.2615ZM6.30002 12.5566V11.2H7.69999V12.5566C10.2377 12.2361 12.2361 10.2377 12.5566 7.69999H11.2V6.30002H12.5566C12.2361 3.76237 10.2377 1.76393 7.69999 1.44343V2.8H6.30002V1.44343C3.76237 1.76393 1.76393 3.76237 1.44343 6.30002H2.8V7.69999H1.44343C1.76393 10.2377 3.76237 12.2361 6.30002 12.5566ZM7.00004 11.2C4.68042 11.2 2.8 9.31958 2.8 7.00004C2.8 4.68042 4.68042 2.8 7.00004 2.8C9.31958 2.8 11.2 4.68042 11.2 7.00004C11.2 9.31958 9.31958 11.2 7.00004 11.2Z" fill="#20222A"/>
</svg>
