<svg width="20" height="18" viewBox="0 0 20 18" fill="none" xmlns="http://www.w3.org/2000/svg">
<path d="M14.2168 17.3333C13.7151 17.3333 13.3805 16.9999 13.3805 16.4999V14.8333C13.3805 13.4166 12.2934 12.3333 10.8717 12.3333H4.18142C2.75974 12.3333 1.67257 13.4166 1.67257 14.8333V16.4999C1.67257 16.9999 1.33805 17.3333 0.836284 17.3333C0.334514 17.3333 0 16.9999 0 16.4999V14.8333C0 12.4999 1.83983 10.6666 4.18142 10.6666H10.8717C13.2133 10.6666 15.0531 12.4999 15.0531 14.8333V16.4999C15.0531 16.9999 14.7186 17.3333 14.2168 17.3333ZM7.52656 8.99995C5.18496 8.99995 3.34514 7.16662 3.34514 4.83329C3.34514 2.49996 5.18496 0.666626 7.52656 0.666626C9.86815 0.666626 11.708 2.49996 11.708 4.83329C11.708 7.16662 9.86815 8.99995 7.52656 8.99995ZM7.52656 2.33329C6.10487 2.33329 5.0177 3.41662 5.0177 4.83329C5.0177 6.24995 6.10487 7.33328 7.52656 7.33328C8.94824 7.33328 10.0354 6.24995 10.0354 4.83329C10.0354 3.41662 8.94824 2.33329 7.52656 2.33329ZM19.2345 17.3333C18.7328 17.3333 18.3983 16.9999 18.3983 16.4999V14.8333C18.3983 13.6666 17.6456 12.6666 16.4748 12.4166C16.0567 12.3333 15.8058 11.8333 15.8894 11.4166C15.973 10.9999 16.4748 10.7499 16.8929 10.8333C18.7328 11.3333 19.9872 12.9999 19.9872 14.9166V16.5833C20.0708 16.9999 19.7363 17.3333 19.2345 17.3333ZM13.3805 8.91662C13.046 8.91662 12.7115 8.66662 12.5443 8.33328C12.377 7.91662 12.7115 7.41662 13.1297 7.33328C14.0496 7.08328 14.7186 6.33329 14.9695 5.49995C15.304 4.16662 14.4677 2.74996 13.1297 2.41662C12.7115 2.33329 12.377 1.83329 12.5443 1.41662C12.6279 0.999959 13.1297 0.666626 13.5478 0.833292C15.7221 1.33329 17.1438 3.66662 16.5584 5.91662C16.1403 7.41662 14.9695 8.49995 13.5478 8.91662H13.3805Z" fill="#006EFF"/>
</svg>
