<svg width="14" height="9" viewBox="0 0 14 9" fill="none" xmlns="http://www.w3.org/2000/svg">
<path fill-rule="evenodd" clip-rule="evenodd" d="M13.2835 2.78981C13.2344 2.78981 13.1895 2.75745 13.1718 2.70939L12.3354 0.403402C12.3123 0.339143 12.3434 0.267561 12.4047 0.243809L13.0016 0.0077065C13.015 0.00260717 13.0291 0 13.0434 0C13.0934 0 13.1385 0.0321871 13.1558 0.0801897L13.9923 2.38633C14.0155 2.44976 13.9847 2.52135 13.9236 2.54583L13.3254 2.78172C13.3121 2.78703 13.2978 2.78981 13.2835 2.78981ZM11.5713 4.28806L11.5752 4.29936L13.2028 2.81854L12.3101 0.340617L12.3083 0.335444L10.1808 0.305886L10.1694 0.305732L11.5713 4.28806ZM4.53056 1.88217C4.53056 2.29838 4.85333 2.63694 5.25011 2.63694C5.64674 2.63694 5.96937 2.29838 5.96944 1.88217C5.96944 1.46593 5.64674 1.12739 5.25011 1.12739C4.85333 1.12739 4.53056 1.46593 4.53056 1.88217ZM4.35866 1.25488V1.26243C4.35874 1.31795 4.36761 6.81232 4.37481 6.86985L4.375 6.87207C4.375 6.87536 4.37379 6.87855 4.37155 6.88105C4.36312 6.89083 4.33772 6.89733 4.24071 6.89733H4.24063C4.17377 6.89733 4.08402 6.89441 3.9706 6.89071L3.96726 6.8906L3.926 6.88927L3.92371 6.88695C3.92206 6.88524 3.75047 6.7117 3.67682 6.63982C3.4844 6.45217 3.17621 6.32 2.88822 6.32498C3.67669 6.33703 4.26255 7.14217 4.31667 8.11308V8.12102L1.43889 8.11354C1.48886 7.72107 1.55164 7.29339 1.80045 6.9535C1.99483 6.68807 2.2355 6.49472 2.49174 6.39696C2.34347 6.44889 2.25783 6.50974 2.25783 6.50974C1.64069 6.88323 1.52548 7.46592 1.44977 7.94718C1.44825 7.95665 1.43089 8.00742 1.19088 8.00473C1.11504 8.00383 1.03932 8.00457 0.963631 8.00539C0.912269 8.00591 0.861005 8.00637 0.809643 8.00637C0.686764 8.00637 0.592643 8.00331 0.504639 7.99651C0.485367 7.995 0.463018 7.99412 0.439287 7.99318L0.433121 7.99294L0.432661 7.99292C0.318347 7.98866 0.176254 7.98337 0.102776 7.91584C-0.0119861 7.81 -0.0110734 7.78155 0.0128888 7.05198L0.0130259 7.0478C0.0262315 6.6448 0.0461538 6.03683 0.0577258 5.08723C0.084562 2.85107 1.00573 1.83161 1.5524 1.42296C1.75219 1.27347 2.7128 1.24204 3.48347 1.24204C3.96225 1.24204 4.34712 1.25444 4.35099 1.25459L4.35866 1.25488ZM4.375 6.87207V6.1859C4.375 6.04122 4.47915 5.92357 4.60717 5.92357H12.7368C12.8651 5.92357 12.9694 6.04122 12.9694 6.1859V7.83959C12.9694 7.98426 12.8651 8.10191 12.7368 8.10191H12.5805L12.5803 8.12102H12.1722L12.1701 8.13046C12.1173 8.36824 11.9871 8.58403 11.8035 8.73815C11.6169 8.8947 11.3821 8.98089 11.1421 8.98089C10.902 8.98089 10.6669 8.8947 10.4802 8.73815C10.2964 8.58403 10.1661 8.36824 10.1132 8.13046L10.1111 8.12102H9.72222C9.76296 7.22744 10.3546 6.43949 11.1514 6.43949C11.9372 6.43949 12.5786 7.26133 12.5806 8.08693C12.6397 7.63848 12.1794 6.39039 11.1231 6.42329C9.9427 6.46 9.65968 7.78422 9.70826 8.09968H9.64443C9.69314 7.81952 9.4174 6.44411 8.21484 6.44149C7.03111 6.43905 6.76472 7.71006 6.77488 8.10073L6.37717 8.10094L6.3776 8.10248L6.37778 8.10439V8.27142C6.37778 8.29094 6.324 8.29299 6.30086 8.29299H4.6267C4.60362 8.29299 4.55 8.29094 4.55 8.27142V8.10439C4.55 8.10077 4.55185 8.09776 4.55502 8.09524C4.45202 8.06843 4.375 7.964 4.375 7.83959V6.87207ZM10.635 8.12102H11.592C11.4899 8.27588 11.3123 8.38013 11.1135 8.38013C10.9147 8.38013 10.7372 8.27596 10.635 8.12102ZM8.2256 6.4586C7.42494 6.4586 6.80556 7.20436 6.80556 8.12102H9.64444C9.64444 7.2345 9.02552 6.4586 8.2256 6.4586ZM3.73333 4.6888V4.4676C3.72185 4.42712 3.69562 4.42006 3.68097 4.41612C3.67821 4.41537 3.67585 4.41474 3.67409 4.41401H2.96406C2.96406 4.41401 2.90179 4.41919 2.89722 4.48309V4.67331C2.89722 4.67331 2.90208 4.72867 2.94814 4.73885L3.68184 4.73812C3.72331 4.7339 3.73333 4.6888 3.73333 4.6888ZM1.11585 2.75061C1.64758 1.84935 1.88657 1.9076 1.88657 1.9076C2.30984 1.79154 3.71389 1.89834 3.71389 1.89834V3.67246L0.719444 4.35669C0.719444 4.35669 0.780797 3.31856 1.11593 2.75061H1.11585ZM6.01643 5.82803H4.52244C4.47331 5.82803 4.43333 5.77274 4.43333 5.7048V2.95155C4.43333 2.88339 4.47331 2.82803 4.52244 2.82803H5.07156C5.1204 2.82803 5.16022 2.88271 5.16076 2.95021L6.10556 5.70352V5.7048C6.10556 5.77274 6.06556 5.82803 6.01643 5.82803ZM8.22682 5.56051L6.825 1.579L10.1479 0.305732L11.55 4.28724L8.22682 5.56051ZM6.20372 5.6314L6.20568 5.63694L8.19484 5.56147L8.20555 5.56103L6.80604 1.57765L6.80232 1.56688L5.23474 2.8583L5.23056 2.86175L6.20372 5.6314ZM7.7392 5.73248H12.7433C12.8251 5.73248 12.8917 5.66289 12.8917 5.57736V3.26752L12.8783 3.27972C12.418 3.69964 11.6808 4.37268 11.6483 4.40231L8.27864 5.69611L7.73889 5.71683L7.7392 5.73248ZM3.36702 8.12102C3.26484 8.27588 3.08725 8.38012 2.88853 8.38012C2.68972 8.38012 2.51221 8.27596 2.40997 8.12102H1.88611L1.88815 8.13045C1.94102 8.36824 2.07136 8.58403 2.25516 8.73815C2.44192 8.8947 2.677 8.98089 2.91708 8.98089C3.15701 8.98089 3.39193 8.8947 3.57846 8.73815C3.76213 8.58403 3.89232 8.36824 3.94509 8.13045L3.94722 8.12102H3.36702ZM8.19687 8.39923C8.3956 8.39923 8.57319 8.29499 8.67537 8.14013H9.25556L9.25344 8.14956C9.20065 8.38734 9.07048 8.60313 8.88689 8.75723C8.70028 8.91381 8.46543 9 8.22543 9C7.98534 9 7.75026 8.91381 7.5635 8.75723C7.37976 8.60313 7.24935 8.38727 7.19656 8.14956L7.19444 8.14013H7.71837C7.82054 8.29499 7.99814 8.39923 8.19687 8.39923Z" fill="#20222A"/>
</svg>
