<svg width="14" height="14" viewBox="0 0 14 14" fill="none" xmlns="http://www.w3.org/2000/svg">
<path fill-rule="evenodd" clip-rule="evenodd" d="M13.6045 13.9999H0.415254C0.213915 13.9206 0.0797236 13.787 0 13.5864V6.91132C0.180392 6.5223 0.746685 6.23834 1.12712 5.98587C1.67793 5.62879 2.28192 5.21549 2.86723 4.82412C3.15445 4.63092 3.52783 4.30527 3.87571 4.35155C4.5891 4.4723 4.22832 5.60795 4.31073 6.47813C4.78201 6.55568 5.06307 6.21749 5.35876 6.02525C5.95663 5.62049 6.52707 5.2447 7.15819 4.82412C7.44574 4.63507 7.861 4.30112 8.20621 4.35155C8.89291 4.4806 8.51961 5.71645 8.62147 6.47813H9.68927C9.70255 7.72885 9.648 9.04407 9.70904 10.239C9.92906 7.77899 10.1765 5.11106 10.4011 2.50064C10.4492 1.90454 10.4282 0.338893 10.8559 0.137766C11.1917 -0.0118159 12.6976 0.0173967 12.952 0.177147C13.2429 0.347279 13.2094 1.06954 13.2486 1.69332C13.4526 5.21125 13.6624 8.54302 13.9011 11.9915C13.956 12.7808 14.2078 13.904 13.6045 13.9999ZM1.62147 9.19543H2.68927V7.5808H1.62147V9.19543ZM4.33051 9.19543H5.39831V7.5808H4.33051V9.19543ZM7 9.19543H8.0678V7.5808H7V9.19543ZM1.62147 11.8537H2.68927V10.239H1.62147V11.8537ZM4.33051 11.8537H5.39831V10.239H4.33051V11.8537ZM7 11.8537H8.0678V10.239H7V11.8537Z" fill="white"/>
</svg>
