<svg width="14" height="14" viewBox="0 0 14 14" fill="none" xmlns="http://www.w3.org/2000/svg">
<rect opacity="0.01" width="14" height="14" fill="#20222A"/>
<path fill-rule="evenodd" clip-rule="evenodd" d="M13.5006 11.9454C13.7988 12.2862 13.9612 12.5845 13.9878 12.84C14.0144 13.0957 13.9159 13.346 13.6923 13.5912C13.4367 13.8788 13.1545 14.0146 12.8456 13.9986C12.5368 13.9826 12.2386 13.8575 11.9509 13.6234L9.3787 11.1468C8.89947 11.4665 8.38021 11.7141 7.82087 11.8896C7.26159 12.0651 6.67313 12.1532 6.05549 12.1535C5.21395 12.1535 4.42572 11.9936 3.69083 11.6739C2.95602 11.3541 2.31419 10.9201 1.76544 10.3717C1.21662 9.82328 0.785278 9.18146 0.471367 8.44625C0.157515 7.71106 0.000319543 6.9228 0 6.08158C0 5.25067 0.157116 4.46771 0.471367 3.73284C0.785678 2.99795 1.21702 2.35621 1.76544 1.80737C2.31379 1.25863 2.95562 0.824554 3.69083 0.50517C4.4261 0.185786 5.21427 0.0259348 6.05549 0.0256352C6.89671 0.0253157 7.68488 0.185167 8.42007 0.50517C9.15528 0.825273 9.7971 1.25933 10.3455 1.80737C10.894 2.35551 11.328 2.99731 11.6477 3.73284C11.9674 4.46843 12.1273 5.25129 12.1273 6.08158C12.1273 6.72067 12.034 7.32792 11.8477 7.90328C11.6612 8.47862 11.4029 9.00593 11.0725 9.48516C11.2109 9.63441 11.4054 9.83418 11.6559 10.0844C11.9064 10.3345 12.1568 10.5874 12.407 10.8431C12.6572 11.0987 12.8888 11.3278 13.1018 11.5302L13.5006 11.9454ZM6.05549 10.0117C6.60938 10.0117 7.13137 9.908 7.62153 9.70039C8.11161 9.49281 8.53772 9.20782 8.89971 8.84554C9.26161 8.48323 9.5466 8.0572 9.75451 7.56736C9.96241 7.07758 10.0662 6.55559 10.0659 6.0013C10.0655 5.44709 9.96179 4.92512 9.75451 4.43534C9.5473 3.9455 9.26231 3.51946 8.89971 3.15716C8.53702 2.7948 8.11091 2.50989 7.62153 2.3023C7.13207 2.0947 6.61002 1.99095 6.05549 1.99095C5.5009 1.99095 4.98164 2.0947 4.49763 2.3023C4.01365 2.50989 3.59033 2.7948 3.22765 3.15716C2.86497 3.51946 2.57734 3.9455 2.36458 4.43534C2.15193 4.92512 2.04544 5.44709 2.04504 6.0013C2.04474 6.55559 2.15123 7.07758 2.36458 7.56736C2.57796 8.0572 2.86567 8.48323 3.22765 8.84554C3.58963 9.20782 4.01295 9.49281 4.49763 9.70039C4.98234 9.908 5.5016 10.0117 6.05549 10.0117ZM9.02695 4.99518V6.99216H3.03542V4.99518H9.02695Z" fill="#20222A"/>
</svg>
